<?xml version="1.0" standalone="no"?>
<!DOCTYPE svg PUBLIC "-//W3C//DTD SVG 20010904//EN"
 "http://www.w3.org/TR/2001/REC-SVG-20010904/DTD/svg10.dtd">
<svg version="1.0" xmlns="http://www.w3.org/2000/svg"
 width="1024.000000pt" height="1024.000000pt" viewBox="0 0 1024.000000 1024.000000"
 preserveAspectRatio="xMidYMid meet">

<g transform="translate(0.000000,1024.000000) scale(0.100000,-0.100000)"
fill="#000000" stroke="none">
<path d="M3418 8969 l-3 -174 -260 3 c-143 1 -290 5 -327 8 l-68 6 0 -177 0
-178 -197 7 c-109 3 -254 7 -323 7 l-125 1 -3 -166 c-1 -91 -3 -167 -5 -167
-1 -1 -81 -4 -177 -8 l-175 -6 2 -145 c1 -80 -1 -160 -4 -179 l-6 -33 -163 3
-164 4 -1 -77 c-1 -43 -3 -82 -4 -88 -1 -5 -3 -126 -4 -267 l-1 -258 -165 3
-165 3 0 -335 0 -334 -162 -2 c-88 0 -165 -3 -170 -6 -4 -3 -8 -531 -8 -1175
l0 -1169 171 0 170 0 -7 -309 c-4 -169 -4 -320 0 -335 l7 -27 169 7 170 7 0
-336 0 -337 168 0 168 0 -4 -176 -5 -176 177 4 176 3 0 -172 0 -173 330 0 330
0 0 -176 0 -177 253 7 c138 3 894 10 1679 14 785 5 1430 10 1432 13 3 3 8 78
12 167 l7 162 334 0 333 0 0 165 0 165 168 0 169 0 6 97 c4 54 7 130 7 169 l0
71 53 7 c28 3 103 6 165 6 l112 0 0 -164 c0 -101 4 -167 10 -171 13 -8 1332
-20 1351 -13 11 4 13 38 11 177 l-3 171 -509 0 -510 0 0 179 0 178 -142 -4
c-79 -2 -155 -5 -170 -7 l-28 -3 0 164 0 163 -181 0 -181 0 4 -166 4 -166
-173 7 -173 7 6 -163 c3 -90 7 -172 9 -181 3 -17 -11 -18 -171 -18 l-174 0 0
-159 0 -158 -332 -8 c-183 -4 -336 -9 -340 -12 -5 -2 -8 -77 -8 -166 l0 -162
-118 -1 c-64 -1 -670 -3 -1347 -4 l-1230 -2 -5 179 -5 178 -40 -1 c-22 0 -169
-4 -327 -9 l-288 -8 0 177 0 177 -165 -3 -165 -3 0 178 0 177 -170 0 -170 0 0
320 0 320 -172 0 -171 0 6 340 5 340 -174 0 -174 0 0 820 0 820 170 0 170 0 0
345 0 345 168 2 167 3 -4 333 -4 332 94 0 c52 0 131 3 177 7 l82 6 0 167 0
167 153 7 c83 3 162 9 175 12 23 7 23 7 20 170 l-3 164 329 0 329 0 -7 171 -7
172 178 -7 c98 -3 247 -6 331 -7 l154 -1 -2 177 -1 177 158 -6 c87 -3 543 -8
1013 -12 470 -3 857 -8 860 -11 3 -2 7 -74 9 -159 l3 -154 504 0 504 0 0 -152
c0 -195 2 -201 49 -194 20 3 96 5 169 6 l132 0 0 186 0 185 -42 -6 c-93 -12
-225 -25 -265 -25 l-43 0 0 170 0 171 -335 -4 -335 -4 0 164 0 163 -472 1
c-260 1 -786 2 -1168 3 -382 2 -779 6 -882 11 l-188 8 -2 -174z"/>
<path d="M7285 8128 c-60 -6 -116 -11 -123 -14 -10 -3 -12 -43 -10 -176 l3
-173 168 0 167 0 0 -336 c0 -313 1 -337 18 -340 9 -2 88 -3 175 -1 l157 3 0
339 0 340 -170 0 -170 0 0 163 c0 89 -3 172 -6 185 -7 25 -17 26 -209 10z"/>
<path d="M7859 7093 c-23 -6 -28 -136 -31 -798 l-3 -530 168 -3 167 -2 0 -176
0 -175 175 3 175 3 2 -170 3 -170 161 -3 161 -2 6 -98 c4 -53 7 -130 7 -169
l0 -73 48 -1 c26 -1 100 0 164 1 l118 2 2 -822 3 -822 -174 8 -174 7 6 -84 c4
-46 7 -122 7 -169 0 -47 4 -90 8 -97 5 -7 65 -14 175 -19 l167 -7 0 179 0 179
153 3 c117 3 155 7 163 18 8 10 11 243 10 825 l-1 811 -125 -1 c-69 -1 -142
-4 -162 -8 l-38 -6 0 183 0 182 -170 -8 -170 -7 0 178 0 177 -170 -7 -170 -8
0 183 0 182 -174 -7 -174 -8 6 667 5 666 -154 -1 c-85 -1 -161 -3 -170 -6z"/>
<path d="M6147 6628 c-4 -79 -7 -383 -7 -675 l0 -533 170 0 170 0 0 170 0 170
160 0 160 0 0 505 0 505 -323 0 -324 0 -6 -142z"/>
</g>
</svg>
